<?xml version="1.0" standalone="no"?>
<!DOCTYPE svg PUBLIC "-//W3C//DTD SVG 20010904//EN"
 "http://www.w3.org/TR/2001/REC-SVG-20010904/DTD/svg10.dtd">
<svg version="1.0" xmlns="http://www.w3.org/2000/svg"
 width="160.000000pt" height="160.000000pt" viewBox="0 0 160.000000 160.000000"
 preserveAspectRatio="xMidYMid meet">
<metadata>
Created by potrace 1.14, written by Peter Selinger 2001-2017
</metadata>
<g transform="translate(0.000000,160.000000) scale(0.100000,-0.100000)"
fill="#000000" stroke="none">
<path d="M678 1454 c-109 -26 -188 -86 -202 -152 l-7 -29 -133 -16 c-81 -10
-157 -25 -191 -39 -63 -25 -125 -76 -125 -102 0 -15 65 -16 778 -16 428 0 781
3 785 6 3 4 -1 20 -9 36 -11 21 -36 40 -87 64 -60 28 -96 37 -212 51 -139 18
-140 18 -145 46 -22 121 -255 199 -452 151z m254 -86 c53 -16 81 -44 68 -68
-22 -42 -68 -55 -190 -55 -92 0 -124 4 -157 19 -156 70 85 159 279 104z"/>
<path d="M20 983 l0 -98 68 -65 c106 -102 272 -180 455 -215 114 -22 117 -21
117 19 0 52 13 57 151 54 l124 -3 3 -44 3 -43 58 6 c102 12 243 55 350 108 81
40 120 67 173 118 l68 67 0 97 0 96 -785 0 -785 0 0 -97z"/>
<path d="M20 514 c0 -276 2 -282 85 -320 115 -53 313 -74 694 -74 389 0 599
22 706 74 83 41 85 48 85 320 l0 235 -73 -52 c-132 -94 -310 -163 -492 -188
l-85 -12 0 -47 c0 -34 -4 -50 -16 -54 -9 -3 -67 -6 -129 -6 -128 0 -135 4
-135 73 l0 34 -97 16 c-187 30 -362 99 -480 189 l-63 47 0 -235z"/>
<path d="M707 623 c-9 -8 -9 -146 -1 -167 5 -13 24 -16 100 -16 l94 0 0 95 0
95 -93 0 c-52 0 -97 -3 -100 -7z m161 -85 l-3 -63 -62 -3 -63 -3 0 66 0 65 65
0 66 0 -3 -62z"/>
</g>
</svg>
